<?xml version="1.0" standalone="no"?>
<!DOCTYPE svg PUBLIC "-//W3C//DTD SVG 20010904//EN"
 "http://www.w3.org/TR/2001/REC-SVG-20010904/DTD/svg10.dtd">
<svg version="1.0" xmlns="http://www.w3.org/2000/svg"
 width="512.000000pt" height="512.000000pt" viewBox="0 0 512.000000 512.000000"
 preserveAspectRatio="xMidYMid meet">

<g transform="translate(0.000000,512.000000) scale(0.100000,-0.100000)"
fill="currentColor" stroke="none">
<path d="M2066 5104 c-143 -35 -290 -148 -354 -275 -50 -98 -62 -157 -62 -306
l0 -133 -657 0 c-617 0 -661 -2 -698 -19 -126 -57 -149 -217 -45 -304 43 -37
89 -47 210 -47 l105 0 174 -1923 c95 -1057 177 -1939 183 -1960 12 -51 71
-114 116 -127 51 -14 2993 -14 3044 0 45 13 104 76 116 127 6 21 88 903 183
1960 l174 1923 105 0 c121 0 167 10 210 47 104 87 81 247 -45 304 -37 17 -81
19 -697 19 l-658 0 0 133 c0 84 -6 152 -15 187 -51 193 -212 349 -406 395 -90
21 -894 21 -983 -1z m968 -388 c59 -45 76 -92 76 -218 l0 -108 -550 0 -550 0
0 108 c1 143 22 193 105 236 26 14 84 16 456 14 l426 -3 37 -29z m1152 -723
c-3 -16 -78 -837 -167 -1825 l-163 -1798 -1296 0 -1296 0 -162 1798 c-90 988
-165 1809 -167 1825 l-4 27 1630 0 1631 0 -6 -27z"/>
<path d="M1585 3645 c-50 -18 -100 -71 -114 -121 -8 -28 10 -324 79 -1298 49
-694 93 -1289 99 -1324 12 -78 46 -127 109 -154 88 -39 189 -1 233 89 l23 48
-93 1310 c-68 953 -97 1320 -108 1347 -19 47 -71 94 -120 107 -48 14 -59 13
-108 -4z"/>
<path d="M2510 3649 c-52 -16 -86 -44 -109 -92 -21 -43 -21 -46 -21 -1366 0
-1306 0 -1322 20 -1361 65 -127 255 -127 320 0 20 39 20 50 18 1373 l-3 1333
-27 41 c-41 62 -126 93 -198 72z"/>
<path d="M3417 3645 c-22 -7 -50 -24 -64 -37 -59 -54 -54 -7 -154 -1409 -92
-1297 -93 -1306 -75 -1353 35 -90 140 -136 231 -101 46 17 90 60 107 104 5 14
52 613 104 1331 74 1031 91 1313 83 1345 -14 50 -73 110 -124 124 -50 14 -61
13 -108 -4z"/>
</g>
</svg>
