<?xml version="1.0" standalone="no"?>
<!DOCTYPE svg PUBLIC "-//W3C//DTD SVG 20010904//EN"
 "http://www.w3.org/TR/2001/REC-SVG-20010904/DTD/svg10.dtd">
<svg version="1.0" xmlns="http://www.w3.org/2000/svg"
 width="512.000000pt" height="512.000000pt" viewBox="0 0 512.000000 512.000000"
 preserveAspectRatio="xMidYMid meet">

<g transform="translate(0.000000,512.000000) scale(0.100000,-0.100000)"
fill="#000000" stroke="none">
<path d="M2486 5105 c-44 -15 -90 -56 -114 -100 -15 -27 -17 -129 -22 -1130
l-5 -1100 -1100 -5 c-1225 -6 -1127 0 -1193 -74 -68 -78 -68 -194 0 -272 66
-74 -32 -68 1193 -74 l1100 -5 5 -1100 c6 -1225 0 -1127 74 -1193 78 -68 194
-68 272 0 74 66 68 -32 74 1193 l5 1100 1100 5 c1225 6 1127 0 1193 74 68 78
68 194 0 272 -66 74 32 68 -1193 74 l-1100 5 -5 1100 c-6 1225 0 1127 -74
1193 -57 50 -135 64 -210 37z"/>
</g>
</svg>
