<?xml version="1.0" standalone="no"?>
<!DOCTYPE svg PUBLIC "-//W3C//DTD SVG 20010904//EN"
 "http://www.w3.org/TR/2001/REC-SVG-20010904/DTD/svg10.dtd">
<svg version="1.0" xmlns="http://www.w3.org/2000/svg"
 width="512.000000pt" height="512.000000pt" viewBox="0 0 512.000000 512.000000"
 preserveAspectRatio="xMidYMid meet">

<g transform="translate(0.000000,512.000000) scale(0.100000,-0.100000)"
fill="currentColor" stroke="none">
<path d="M4875 4501 c-16 -4 -41 -13 -55 -20 -14 -7 -782 -770 -1707 -1694
l-1683 -1682 -562 562 c-586 584 -584 583 -663 583 -105 0 -205 -100 -205
-205 0 -89 7 -96 673 -761 348 -348 648 -640 667 -650 54 -27 138 -23 191 9
25 14 805 787 1796 1779 1823 1824 1792 1792 1793 1873 0 131 -125 236 -245
206z"/>
</g>
</svg>
